<?xml version="1.0" encoding="utf-8"?>
<!-- Generator: Adobe Illustrator 19.0.1, SVG Export Plug-In . SVG Version: 6.00 Build 0)  -->
<svg version="1.1" id="レイヤー_1" xmlns="http://www.w3.org/2000/svg" xmlns:xlink="http://www.w3.org/1999/xlink" x="0px"
	 y="0px" viewBox="0 0 96 96" enable-background="new 0 0 96 96" xml:space="preserve">
<rect fill="#22B573" width="96" height="96"/>
<g>
	<path fill="#FFFFFF" d="M18.7,45.3c-3,0-4.8-1.8-4.8-3.4c0-2.3,3-3.7,3.1-3.7c0,0,0.1,0.1,0.1,0.1s0,0.1-0.3,0.4
		c-0.2,0.2-0.4,0.5-0.4,0.8c0,1.3,3.6,1.3,4.3,1.3c1.4,0,3.5-0.1,6.7-0.4c3-2.6,5-3.8,7-3.8c1.2,0,2.1,0.6,2.1,1.4
		c0,1.3-2.2,3.7-8.5,5.6c-1.5,2.8-1.5,4.6-1.5,5.3c0,3.5,1.6,4.4,3.5,5.6c0.9,0.5,1.6,1.3,1.6,2.4c0,1.3-1.1,2.5-2.6,2.5
		c-2.2,0-6.6-2.9-6.6-8.4c0-1.5,0.4-4.1,1.8-6.4C24.4,44.6,21.2,45.3,18.7,45.3z M35,38.3c0-0.2-0.4-0.3-0.6-0.3c-1.1,0-3,1.3-4,2.2
		C34.4,39.5,35,38.6,35,38.3z"/>
	<path fill="#FFFFFF" d="M39.2,41.5c-0.2,0-1,0.1-1.1,0.1c-0.2,0-0.8-0.8-0.9-1c-0.1-0.1-0.5-0.2-0.5-0.3c0-0.1,0.1-0.2,0.2-0.2
		h12.4c-0.3-2.5-0.5-4.5-1.2-4.6c-0.2,0-0.4-0.1-0.4-0.2c0-0.2,1-0.2,1.3-0.2c1.2,0,3.4,0.4,4,1.6c0.4,0.8,0.7,3.4,0.7,3.5h2.9
		c0.8,0,1.3-0.2,1.8-0.8c0.6-0.7,1-1.1,1.7-1.1c0.8,0,1.7,0.7,1.7,1.7c0,0.8-0.5,1.5-1.9,1.5h-6.2c0,2.3,0,4.4-0.8,6.6
		c1.3,2.3,1.6,3.9,1.6,5c0,4.2-3.7,7.7-7.6,7.7c-0.2,0-1,0-1-0.3c0-0.1,0.4-0.2,0.5-0.2c1.1-0.4,3.6-2.7,3.6-7c0-0.6,0-0.9-0.1-1.2
		c-2.1,1.3-4.1,1.3-4.7,1.3c-3.2,0-4.4-1.9-4.4-3.6c0-2,1.8-4.6,5.8-4.6c1.4,0,2.2,0.2,2.6,0.4c0-0.4,0.2-1.1,0.2-2.7
		c0-0.2,0-1.3,0-1.6H39.2z M45.9,46.6c-1.1,0-1.7,0.7-1.7,1.4c0,0.6,0.4,1.4,1.6,1.4c1.8,0,2.3-1,2.6-1.6
		C47.9,47.1,47,46.6,45.9,46.6z"/>
	<path fill="#FFFFFF" d="M69.7,53c0,1.6,1.1,2.2,2.2,2.2s2.8-0.6,4.6-1.5c0.8-0.4,1.6-0.9,2.6-0.9c1.4,0,2.9,1.3,2.9,3.1
		c0,3-3.9,3.6-6.6,3.6c-2.1,0-8.8-0.4-8.8-5.8c0-2.4,1.5-5.4,3.9-7.7c-1.8-2-2.9-4.8-4.1-7.7c-0.4-1.1-0.9-1.8-1.4-1.8
		c0,0-0.3,0.1-0.4,0.1c-0.1,0-0.2-0.1-0.2-0.2c0-0.2,1.8-0.8,3.5-0.8c2.1,0,2.7,1.1,3.3,2.4c0.5,1.2,1.8,4,2.7,5.4
		c0.8-0.4,2.6-1.3,4.4-1.3c1.6,0,1.8,1.2,1.8,1.7c0,2.2-2.1,4.8-4.8,4.8c-1,0-2-0.3-3.4-1.3C71.1,48.5,69.7,50.8,69.7,53z
		 M77.4,46.2c0.6,0,1-0.6,1-1.3c0-0.8-0.6-1.3-1.1-1.3c-0.7,0-1.6,0.5-2.3,0.9C75.5,45.2,76.4,46.2,77.4,46.2z"/>
</g>
</svg>
